<svg style="position: absolute; width: 0; height: 0; overflow: hidden;" aria-hidden="true" version="1.1" xmlns="http://www.w3.org/2000/svg">
    <defs>
        <symbol id="logout" viewBox="0 0 16 16" fill="none">
            <path fill="currentColor" fill-rule="evenodd" clip-rule="evenodd" d="M4 1.3333c-0.5304 0-1.0391 0.2107-1.4142 0.5858C2.2107 2.2942 2 2.8029 2 3.3333v9.3333c0 0.5305 0.2107 1.0392 0.5858 1.4143 0.3751 0.375 0.8838 0.5857 1.4142 0.5857h4c0.5304 0 1.0391-0.2107 1.4142-0.5857C9.7893 13.7058 10 13.1971 10 12.6666V3.3333c0-0.5304-0.2107-1.0391-0.5858-1.4142C9.0391 1.544 8.5304 1.3333 8 1.3333zM10.862 4.862c0.125-0.125 0.2946-0.1952 0.4713-0.1952 0.1768 0 0.3463 0.0702 0.4714 0.1952l2.6666 2.6666C14.5963 7.6537 14.6665 7.8232 14.6665 8c0 0.1768-0.0702 0.3463-0.1952 0.4713l-2.6666 2.6667c-0.1258 0.1214-0.2942 0.1886-0.469 0.1871s-0.342-0.0716-0.4656-0.1952-0.1937-0.2909-0.1952-0.4657 0.0657-0.3432 0.1871-0.4689l1.5287-1.5286-5.724 0c-0.1768 0-0.3464-0.0703-0.4714-0.1953C6.0702 8.3464 6 8.1768 6 8 6 7.8232 6.0702 7.6536 6.1953 7.5286c0.125-0.125 0.2946-0.1953 0.4714-0.1953l5.724 0-1.5287-1.5287c-0.125-0.125-0.1952-0.2945-0.1952-0.4713 0-0.1768 0.0702-0.3463 0.1952-0.4713z" />
        </symbol>
        
        <symbol id="round-dashboard" viewBox="0 0 16 16" fill="none">
            <path fill="currentColor" d="M2.6667 8.6667l4 0c0.3666 0 0.6666-0.3 0.6666-0.6667l0-5.3333C7.3333 2.3 7.0333 2 6.6667 2h-4C2.3 2 2 2.3 2 2.6667V8c0 0.3667 0.3 0.6667 0.6667 0.6667zM2.6667 14h4c0.3666 0 0.6666-0.3 0.6666-0.6667l0-2.6666C7.3333 10.3 7.0333 10 6.6667 10h-4C2.3 10 2 10.3 2 10.6667v2.6666C2 13.7 2.3 14 2.6667 14zM9.3333 14h4C13.7 14 14 13.7 14 13.3333V8c0-0.3667-0.3-0.6667-0.6667-0.6667l-4 0c-0.3666 0-0.6666 0.3-0.6666 0.6667l0 5.3333C8.6667 13.7 8.9667 14 9.3333 14zM8.6667 2.6667l0 2.6666C8.6667 5.7 8.9667 6 9.3333 6h4C13.7 6 14 5.7 14 5.3333V2.6667C14 2.3 13.7 2 13.3333 2h-4C8.9667 2 8.6667 2.3 8.6667 2.6667z" />
        </symbol>

        <symbol id="eye-off" viewBox="0 0 18 18" fill="none" stroke="currentColor" stroke-width="1.5" stroke-linecap="round" stroke-linejoin="round">
            <path d="M13.455 13.455C12.1729 14.4323 10.6118 14.9737 9 15 3.75 15 0.75 9 0.75 9 1.6829 7.2614 2.9769 5.7425 4.545 4.545M7.425 3.18C7.9413 3.0592 8.4698 2.9988 9 3c5.25 0 8.25 6 8.25 6-0.4553 0.8517-0.9982 1.6536-1.62 2.3925M10.59 10.59c-0.206 0.2211-0.4544 0.3984-0.7304 0.5214-0.276 0.1229-0.5739 0.1891-0.876 0.1944-0.3021 53e-4-0.6022-0.0503-0.8824-0.1634-0.2802-0.1132-0.5347-0.2816-0.7483-0.4953-0.2137-0.2136-0.3821-0.4681-0.4953-0.7483-0.1131-0.2801-0.1687-0.5802-0.1634-0.8823 54e-4-0.3022 0.0715-0.6001 0.1945-0.8761C7.0116 7.8644 7.1889 7.616 7.41 7.41" />
            <path d="M0.75 0.75l16.5 16.5" />
        </symbol>
        
        <symbol id="eye" viewBox="0 0 18 18" fill="none" stroke="currentColor" stroke-width="1.5" stroke-linecap="round" stroke-linejoin="round">
            <path d="M0.75 9c0 0 3-6 8.25-6s8.25 6 8.25 6-3 6-8.25 6-8.25-6-8.25-6z" />
            <path d="M9 11.25c1.2426 0 2.25-1.0074 2.25-2.25 0-1.2426-1.0074-2.25-2.25-2.25-1.2426 0-2.25 1.0074-2.25 2.25 0 1.2426 1.0074 2.25 2.25 2.25z" />
        </symbol>
    </defs>
</svg>
